<svg xmlns="http://www.w3.org/2000/svg" width="250" height="250" fill="none" viewBox="0 0 250 250">
<!-- SVG created with Arrow, by QuiverAI (https://quiver.ai) -->
  <path d="m178.7 149.4 12.11 6.8c3.13 1.56 4.35 4.82 2.49 8.81-3.04 4.62-11 3.99-19.11 2.18l4.51-17.79z" fill="#F4E3C1" stroke="#7A4D26" stroke-miterlimit="10" stroke-width="1.7"/>
  <path d="m185.2 117.1c-3.28-1.73-3.55-5.37-2.18-7.27 2.13-3.09-1.9-14.1-16.31-19.92-2.6-1.07-3.39-1.38-4.07-1.49l1.1-13.47c6.66 1.24 12.23-4 12.08-9.3-0.13-4.67-3.88-8.18-9.2-8.19 0.2-6.33-5.31-11.97-11.94-11.47-4.42 0.2-7.19 2.55-9.48 4.66-1.37-1.12-5.14-2.91-9.04-1.43-4.55 1.75-7.11 8.51-3.61 14.08 1.24 2.17 3.81 3.77 5.13 4.28l-2.92 7.36c-1.57-3.72-3.98-6.02-11.04-4.41-3.7 0.89-7.14 0.17-10.46-1.25-6.94-2.41-13.96-3.51-20.31-1.49-6.63 2.29-8.98 5.5-9.13 9.49-6.57 0.43-12.62 2.51-19.23 7.48-1.78-2.8-4.18-5.77-8.55-5.34-4.17 0.41-10.73 5.22-14.34 10.36-5.76 7.99-7.06 12.14-17.55 17.84-3.54 2.05-6.15 4.8-5.3 8.17-6.6 4.58-12.03 13.41-12.71 18.65-0.43 2.69 1.68 4 5.3 5.79 6.9 3.32 8.97 7.59 12.85 16.47 1.7 3.62 3.56 8.16 4.36 9.48l1.47 10.97 7.53-1.03c7.34 6.71 17.8 11.5 31.26 14.66 3.88 3.36 4.04 12.47 12.34 12.63 6.53 0 8.56-6.31 10.26-8.66 10.41 0.74 21.26 0.19 34.59-1.63 2.81 3.22 3.55 7.83 9.85 7.96 7.29-0.06 8.66-7.08 11.3-13.59 11.17-4.24 20.89-10.62 27.73-21.45 4.16-6.38 3.73-18.82 11.75-27.27 4.38-4.58 7.12-4.95 7.28-8.85-0.06-3.75-3.82-9.98-8.81-12.82z" fill="#F4E3C1" stroke="#7A4D26" stroke-miterlimit="10" stroke-width="1.7"/>
  <path d="m138.2 67.13c4.71 0.65 10.68 0.03 15.79 2.93 3.7 2.12 6.27 4.67 8.69 5.03l-2.09 9.94-2.38-2.02c-6.08-4.82-12.46-6.55-23.03-6.94l3.02-8.94z" fill="#F4E3C1" stroke="#7A4D26" stroke-miterlimit="10" stroke-width="1.7"/>
  <path d="m139.1 109.2c-4.2-5.3-10.71-9.96-10.13-16.26 0.42-4.95 3.2-10.89 3.13-16.65-0.07-2.91-1.38-6.14-3.91-5.99l4.53 0.22c1.4 0.8 2.22 2.76 2.19 5.93-0.15 6.26-1.82 11.94-1.21 17.53 0.5 5.23 5.49 9.86 6.87 13.18l-1.47 2.04z" fill="#E5C59A"/>
  <path d="m165.8 91.01c-0.81 4.81-5.91 10.7-6.1 14.88-0.29 4.62 6.27 12.1 5.32 20.82l-0.87-0.99c-1.01-5.49-7.61-12.29-7.98-18.39-0.47-6.17 6.39-12.61 5.9-18.51l3.73 2.19z" fill="#E5C59A"/>
  <path d="m181.1 115.6c-4.94 4.43-6.01 10.63-7.34 23.36l-0.8-0.45c1.79-5.49 0.77-12.38 2.78-17.26 1.69-4.33 6.5-8.47 7.7-12.43 0.62 1.96 0.52 4.32-2.34 6.78z" fill="#E5C59A"/>
  <path d="m178.9 147.1c-2.43 9.5-6.68 20.5-15.95 28.6-12.2 11.05-30.69 17.57-59.41 18.53-20.32 0.43-43.48-4.34-53.47-9.58-5.36-2.89-8.86-5.5-11.99-8.55l6.57-6.1c6.17 5.77 16.24 8.92 29.71 12.98 13.11 4.3 32.76 4.67 48.08 2.02 16.49-2.95 30.38-8.07 41.75-18.34 7.37-6.71 10.46-13.2 14.71-19.56z" fill="#E5C59A"/>
  <path d="m18.04 118.3c0.87 5.16 4.51 7.99 10.03 10.57 6 2.85 7.76 7.24 9.79 12.35 1.49 3.06 2.8 4.15 5.8 5.19l-1.26-1.71c-2.86-2.42-2.96-9.44-7.82-14.69-3.97-4.24-10.86-6.3-13.36-11.88-0.81-1.7-0.87-2.7-0.87-3.56l-2.31 3.73z" fill="#E5C59A"/>
  <path d="m7.82 138.1c8.27 2.08 13.47 7.03 17.38 13.34 2.68 4.33 4.6 8.81 5.98 12.2l-3.05 0.6c-3.21-6.35-5.18-15.46-14.07-20.95-2.77-1.75-5.77-2.85-6.24-5.19z" fill="#E5C59A"/>
  <path d="m58.68 81.11c1.47 0.33 2.39 1.52 3.43 3.42l-2.35 1.16c-1.54-2.23-3.03-2.48-4.25-1.81-2.19 1.08-3.6 2.3-5.33 4.03 1.04-3.5 5.76-7.29 8.5-6.8z" fill="#E5C59A"/>
  <path d="m49.88 88.82c-2.03 5.41 0.19 10.47 5.88 16.73 5.91 6.18 6.94 9.58 4.29 18.63l-0.29 2.05 0.96-2.05c3.5-7.39 3.2-11.4-4-19.22-5.24-5.66-7.27-8.28-6.01-14.92l-0.83-1.22z" fill="#E5C59A"/>
  <path d="m80.91 79.66c0.81 6.71 4.25 13.33 3.88 19.82-0.22 5.89-1.85 10.23-3.07 15.21l1.09-0.22c5.38-7.56 8-13.76 6.84-20.53-0.94-5.03-4.47-11.53-4.62-16.67l-4.12 2.39z" fill="#E5C59A"/>
  <path d="m165.1 58.05c1.49-5.49-3.92-11.96-11.14-11.44-4.46 0.27-6.95 2.5-8.83 4.77-2.03-1.73-6.95-3.6-10.42-0.34-4.38 4.04-3.83 12.68 3.77 15.56 3.77 0.89 9.27 0.05 13.63 2.1 4.09 1.83 5.95 4.18 9.45 5.21 6.38 1.86 12.14-1.73 13.54-6.1 1.67-5.55-2.89-10.79-10-9.76z" fill="#F9F0E1" stroke="#512C05" stroke-miterlimit="10" stroke-width="1.7"/>
  <path d="m162.2 66.07-5.97 5.24" stroke="#512C05" stroke-linecap="round" stroke-miterlimit="10" stroke-width="1.1"/>
  <path d="m145.3 60.6 0.91 5.19" stroke="#512C05" stroke-linecap="round" stroke-miterlimit="10" stroke-width="1.1"/>
  <path d="m161.4 72.73c4.26 1.42 10.49 0 12.79-5.6-0.49 4.95-6.25 8.98-11.18 7.5l-1.61-1.9z" fill="#E5C59A"/>
  <path d="m144.2 68.65c3.5 0.43 9.26 1.78 12.15 4.08l-0.55 1.33c-4.01-1.98-8.3-3.37-13.02-3.94l1.42-1.47z" fill="#FEFFFE"/>
  <path d="m223 115c-3.8 3.09-2.86 7.89 0.92 11.07 3.23 2.81 2.18 6.55-0.92 9.4" stroke="#BDA17F" stroke-linecap="round" stroke-miterlimit="10" stroke-width="2.2"/>
  <path d="m232.9 121.1c-2.45 2.27-1.8 5.17 0.34 7.1 1.94 1.69 0.44 4.1-1.23 5.39" stroke="#BDA17F" stroke-linecap="round" stroke-miterlimit="10" stroke-width="1.7"/>
  <path d="m213.6 125.1c-0.81 2.68 0 4.02 2.35 5.75 1.86 1.33 0.26 4.21-0.86 5.41" stroke="#BDA17F" stroke-linecap="round" stroke-miterlimit="10" stroke-width="1.7"/>
  <path d="m204.9 153.1-22.01 6.94c-3.91 1.39-3.61 4.86-0.21 5.18 3 0.22 11.84-4.47 24.33-7.38l2.4 3.01c2.25 2.44 7.83 2.76 14.87 1.19 6.92-1.73 15.13-4.93 18.14-8.42 2.35-2.75 2.01-8.48 1.51-11.18-1.14-4.03-11.08-4.15-19.23-1.9-10.66 3.08-21.25 8.14-19.8 12.56z" fill="#706F6B" stroke="#301200" stroke-miterlimit="10" stroke-width="1.7"/>
  <path d="m207 154.1c3.28 1.94 8.03 2.15 16.44-0.33 10.59-3.25 16.44-6.68 20.06-9.33" stroke="#301200" stroke-miterlimit="10" stroke-width="1.7"/>
  <path d="m198.9 156.9 1.66-2.28 3.52-0.92 0.97 2.69-6.15 0.51z" fill="#D1D3D4" stroke="#301200" stroke-miterlimit="10" stroke-width=".7"/>
  <path d="m136.5 120.3c-3.91 0-5.13 3.33-4.86 5.66 0.32 2.79 2.22 4.09 4.72 4.09 3.14 0 4.79-2.35 4.49-5.5-0.24-2.29-1.7-4.25-4.35-4.25z" fill="#221F1F"/>
  <path d="m94.58 122.5c-4.56 0-4.69 5.23-4.2 6.7 0.96 2.8 2.99 3.48 4.85 3.24 2.96-0.39 4.32-2.74 4.16-5.36-0.18-2.4-1.88-4.58-4.81-4.58z" fill="#221F1F"/>
  <path d="m111.5 129.9c-3.63-0.39-4.16 2.26-3.43 4.95 1.5 4.27 4.97 5.93 8.29 5.7 4.68-0.29 7.64-3.03 8.77-7.37 0.43-2.69-0.53-4.86-4.06-3.85-3.03 1-4.99 0.72-9.57 0.57z" fill="#2E1001"/>
  <path d="m116.8 131.7c-3.26-0.06-6.74-0.63-6.94 2.22-0.15 2.27 2.98 5.18 6.69 4.95 3.83-0.26 6.25-2.68 6.38-5.66 0.02-2.27-1.94-1.45-6.13-1.51z" fill="#B54A3F"/>
  <path d="m116.6 133.3c-2.33-0.1-4.92 0.53-5.49 1.89 1.24 1.86 3.1 2.8 5.45 2.65s3.82-1.12 4.91-2.74c-0.65-1.37-2.2-1.7-4.87-1.8z" fill="#F1958A"/>
  <path d="m86.86 133.5c-4.55-0.23-6.77 1.43-6.63 3.45 0.2 2.36 3.23 3.02 6.48 2.72 3.43-0.3 6-1.04 5.93-3.19-0.07-1.73-2.26-2.83-5.78-2.98z" fill="#F1958A"/>
  <path d="m146.4 129c-4.38 0.23-6.4 2.11-6.2 4.13 0.3 2.35 2.94 2.96 6.47 2.6s5.23-1.33 5.35-3.49c0.06-2.06-2.17-3.41-5.62-3.24z" fill="#F1958A"/>
  <path d="m35.31 155.4c-4.94 5.49-10.6 15.69-9.36 20.2 1.16 4.17 5.06 4.66 7.96 2.87 3.13-1.83 6.03-7 10.87-8.73" fill="#F4E3C1"/>
  <path d="m35.31 155.4c-4.94 5.49-10.6 15.69-9.36 20.2 1.16 4.17 5.06 4.66 7.96 2.87 3.13-1.83 6.03-7 10.87-8.73" stroke="#7A4D26" stroke-linecap="round" stroke-miterlimit="10" stroke-width="1.7"/>
</svg>