<svg id="visual" viewBox="0 0 900 600" width="900" height="600" xmlns="http://www.w3.org/2000/svg" xmlns:xlink="http://www.w3.org/1999/xlink" version="1.1"><path d="M0 448L21.5 425.2C43 402.3 86 356.7 128.8 355.7C171.7 354.7 214.3 398.3 257.2 415.2C300 432 343 422 385.8 405.3C428.7 388.7 471.3 365.3 514.2 362.8C557 360.3 600 378.7 642.8 397.8C685.7 417 728.3 437 771.2 423.8C814 410.7 857 364.3 878.5 341.2L900 318L900 601L878.5 601C857 601 814 601 771.2 601C728.3 601 685.7 601 642.8 601C600 601 557 601 514.2 601C471.3 601 428.7 601 385.8 601C343 601 300 601 257.2 601C214.3 601 171.7 601 128.8 601C86 601 43 601 21.5 601L0 601Z" fill="#d8ccba" stroke-linecap="round" stroke-linejoin="miter"></path></svg>